<svg width="14" height="16" viewBox="0 0 14 16" fill="none" xmlns="http://www.w3.org/2000/svg">
<path d="M12.1598 4.93803C11.9337 4.93803 11.7183 4.98522 11.5228 5.07001C11.2851 4.46923 10.7019 4.04332 10.0214 4.04332C9.76866 4.04332 9.52925 4.10215 9.31603 4.20677C9.04618 3.68652 8.50536 3.33027 7.88314 3.33027C7.70024 3.33027 7.52462 3.36146 7.36053 3.41819V1.62699C7.36058 0.729913 6.63573 0 5.74469 0C4.85375 0 4.12896 0.729913 4.12896 1.62699V8.07241L2.96521 6.74102C2.95708 6.73191 2.94878 6.72297 2.94016 6.71441C2.6346 6.40863 2.22792 6.23909 1.79506 6.23699C1.79226 6.23699 1.78962 6.23699 1.78681 6.23699C1.35498 6.23699 0.950667 6.40373 0.647636 6.70697C0.113333 7.24144 0.0837577 8.03476 0.566721 8.88384C1.19191 9.98229 1.8715 11.018 2.47115 11.932C2.90935 12.5999 3.3233 13.2307 3.6259 13.7523C3.88831 14.2049 4.58488 15.6729 4.59199 15.6877C4.68238 15.8785 4.87465 16.0001 5.08562 16.0001H11.9958C12.2332 16.0001 12.4434 15.8469 12.5161 15.6211C12.645 15.2203 13.7756 11.667 13.7756 10.2947V6.56518C13.7755 5.66789 13.0508 4.93803 12.1598 4.93803ZM11.6373 6.56513C11.6373 6.27055 11.8717 6.03093 12.1598 6.03093C12.4481 6.03093 12.6825 6.27055 12.6825 6.56513V10.2946C12.6825 11.2066 11.9817 13.6583 11.5949 14.9071H5.43024C5.20365 14.4356 4.77898 13.5622 4.5713 13.204C4.25362 12.6562 3.83164 12.0132 3.38493 11.3323C2.79417 10.4321 2.1247 9.41162 1.51659 8.34334C1.35789 8.06423 1.21243 7.68793 1.4207 7.47966C1.51783 7.38231 1.64863 7.33146 1.78978 7.32995C1.92753 7.33065 2.05709 7.38258 2.15638 7.47654L4.26407 9.88758C4.41383 10.0591 4.65453 10.1196 4.86754 10.0396C5.08077 9.9595 5.22197 9.7556 5.22197 9.52793V1.62699C5.22197 1.33247 5.45647 1.09296 5.74474 1.09296C6.03306 1.09296 6.26762 1.33247 6.26762 1.62699V6.72927C6.26762 7.03107 6.51236 7.27575 6.8141 7.27575C7.11584 7.27575 7.36058 7.03107 7.36058 6.72927V4.9571C7.36058 4.66274 7.59503 4.42328 7.88319 4.42328C8.17146 4.42328 8.40591 4.66274 8.40591 4.9571V7.44206C8.40591 7.74401 8.6506 7.98859 8.95234 7.98859C9.25413 7.98859 9.49887 7.74406 9.49887 7.44206V5.67031C9.49887 5.37579 9.73332 5.13622 10.0215 5.13622C10.3098 5.13622 10.5444 5.37579 10.5444 5.67031V8.15543C10.5444 8.45717 10.7891 8.70196 11.0908 8.70196C11.3927 8.70196 11.6374 8.45717 11.6374 8.15543V6.56513H11.6373Z" fill="black"/>
</svg>
